<svg width="32" height="32" viewBox="0 0 32 32" fill="none" xmlns="http://www.w3.org/2000/svg">
<defs>
<linearGradient id="paint0_linear_5_21" x1="16" y1="0" x2="16" y2="32" gradientUnits="userSpaceOnUse">
<stop stop-color="#AEB5DB"/>
<stop offset="1" stop-color="#DBAEAE"/>
</linearGradient>
</defs>
<path fill-rule="evenodd" clip-rule="evenodd" d="M2.64267 2.96892C6.20091 -0.989639 12.0007 -0.989639 15.559 2.96892L16 3.45955L16.441 2.96892C19.9993 -0.989639 25.7991 -0.989639 29.3573 2.96892C32.8809 6.88888 32.8809 13.22 29.3573 17.1399L16 32L2.64267 17.1399C-0.880888 13.22 -0.880888 6.88888 2.64267 2.96892ZM14.6953 3.73131C11.5971 0.284495 6.60458 0.284495 3.50633 3.73131C0.373391 7.21672 0.373391 12.8921 3.50633 16.3775L16 30.2768L28.4937 16.3775C31.6266 12.8921 31.6266 7.21672 28.4937 3.73131C25.3954 0.284495 20.4029 0.284495 17.3047 3.73131L16 5.18277L14.6953 3.73131Z" fill="url(#paint0_linear_5_21)"/>

</svg>
