<svg width="34" height="32" viewBox="0 0 34 32" fill="none" xmlns="http://www.w3.org/2000/svg">
<defs>
<linearGradient id="paint0_linear_5_20" x1="16.6306" y1="0" x2="16.6306" y2="32" gradientUnits="userSpaceOnUse">
<stop stop-color="#AEB5DB"/>
<stop offset="1" stop-color="#DBAEAE"/>
</linearGradient>
</defs>
<path fill-rule="evenodd" clip-rule="evenodd" d="M21.8642 7.23331L18.467 2.44969C17.5691 1.18548 15.6922 1.18548 14.7943 2.44969L11.397 7.23331C10.732 8.16977 9.77843 8.86256 8.68229 9.20569L3.08298 10.9585C1.6032 11.4217 1.02318 13.2068 1.94807 14.4514L5.44775 19.1606C6.13286 20.0825 6.49708 21.2034 6.48469 22.352L6.42141 28.2189C6.40468 29.7694 7.92318 30.8726 9.39263 30.3776L14.9528 28.5044C16.0413 28.1377 17.22 28.1377 18.3084 28.5044L23.8687 30.3776C25.3381 30.8726 26.8566 29.7694 26.8399 28.2189L26.7766 22.352C26.7642 21.2034 27.1284 20.0825 27.8135 19.1606L31.3132 14.4514C32.2381 13.2068 31.6581 11.4217 30.1783 10.9585L24.579 9.20569C23.4828 8.86256 22.5293 8.16976 21.8642 7.23331ZM19.6912 1.58026C18.1948 -0.526755 15.0665 -0.526754 13.5701 1.58026L10.1728 6.36389C9.69778 7.03279 9.01668 7.52764 8.23372 7.77273L2.63441 9.52552C0.168106 10.2976 -0.798585 13.2727 0.7429 15.347L4.24258 20.0562C4.73194 20.7147 4.9921 21.5154 4.98325 22.3358L4.91997 28.2027C4.89209 30.7868 7.42293 32.6256 9.872 31.8005L15.4322 29.9274C16.2097 29.6655 17.0516 29.6655 17.8291 29.9274L23.3893 31.8005C25.8384 32.6256 28.3692 30.7868 28.3413 28.2027L28.278 22.3358C28.2692 21.5154 28.5293 20.7147 29.0187 20.0562L32.5184 15.347C34.0599 13.2727 33.0932 10.2976 30.6269 9.52552L25.0276 7.77273C24.2446 7.52764 23.5635 7.03278 23.0885 6.36389L19.6912 1.58026Z" fill="url(#paint0_linear_5_20)"/>

</svg>
